<svg version="1.2" xmlns="http://www.w3.org/2000/svg" viewBox="0 0 64 64" width="64" height="64"><style>.a{fill:none;stroke:#fff;stroke-linecap:round;stroke-linejoin:round;stroke-width:5.3}</style><path fill-rule="evenodd" class="a" d="m40 8h8c1.5 0 2.7 1.2 2.7 2.7v42.6c0 1.5-1.2 2.7-2.7 2.7h-8c-1.5 0-2.7-1.2-2.7-2.7v-42.6c0-1.5 1.2-2.7 2.7-2.7z"/><path fill-rule="evenodd" class="a" d="m16 8h8c1.5 0 2.7 1.2 2.7 2.7v42.6c0 1.5-1.2 2.7-2.7 2.7h-8c-1.5 0-2.7-1.2-2.7-2.7v-42.6c0-1.5 1.2-2.7 2.7-2.7z"/></svg>