<svg version="1.2" xmlns="http://www.w3.org/2000/svg" viewBox="0 0 64 64" width="64" height="64"><style>.a{fill:none;stroke:#fff;stroke-linecap:round;stroke-linejoin:round;stroke-width:5.3}</style><path class="a" d="m13.3 13.3c0-0.9 0.3-1.8 0.8-2.6 0.4-0.9 1.1-1.5 1.9-2 0.8-0.5 1.7-0.7 2.7-0.7 0.9 0 1.8 0.3 2.7 0.7l31.9 18.7c0.9 0.5 1.5 1.1 2 1.9 0.5 0.8 0.7 1.8 0.7 2.7 0 0.9-0.2 1.8-0.7 2.7-0.5 0.8-1.1 1.4-1.9 1.9l-32 18.7c-0.9 0.4-1.8 0.7-2.7 0.7-1 0-1.9-0.2-2.7-0.7-0.8-0.5-1.5-1.1-1.9-2-0.5-0.8-0.8-1.7-0.8-2.6z"/></svg>