<svg version="1.2" xmlns="http://www.w3.org/2000/svg" viewBox="0 0 64 64" width="64" height="64"><style>.a{fill:none;stroke:#fff;stroke-linecap:round;stroke-linejoin:round;stroke-width:5.3}</style><path class="a" d="m32 16q0-1.6 0.9-3c0.6-0.8 1.4-1.5 2.4-1.9 1-0.4 2-0.5 3.1-0.3 1 0.2 2 0.7 2.7 1.4l16 16q0.8 0.8 1.2 1.8 0.4 0.9 0.4 2 0 1.1-0.4 2-0.4 1-1.2 1.8l-16 16c-0.7 0.7-1.7 1.2-2.7 1.4-1.1 0.2-2.1 0.1-3.1-0.3-1-0.4-1.8-1.1-2.4-1.9q-0.9-1.3-0.9-3z"/><path class="a" d="m5.3 16q0-1.6 0.9-3c0.6-0.8 1.5-1.5 2.4-1.9 1-0.4 2.1-0.5 3.1-0.3 1 0.2 2 0.7 2.7 1.4l16 16q0.8 0.8 1.2 1.8 0.4 0.9 0.4 2 0 1.1-0.4 2-0.4 1-1.2 1.8l-16 16c-0.7 0.7-1.7 1.2-2.7 1.4-1 0.2-2.1 0.1-3.1-0.3-0.9-0.4-1.8-1.1-2.4-1.9q-0.9-1.3-0.9-3z"/></svg>