<svg version="1.2" xmlns="http://www.w3.org/2000/svg" viewBox="0 0 64 64" width="64" height="64"><style>.a{fill:none;stroke:#fff;stroke-linecap:round;stroke-linejoin:round;stroke-width:5.3}</style><path class="a" d="m29.3 12.5q0-0.5-0.3-1-0.3-0.5-0.8-0.7-0.6-0.2-1.1-0.1-0.6 0.1-1 0.5l-9 9q-0.3 0.3-0.6 0.5-0.3 0.2-0.6 0.3-0.4 0.2-0.7 0.3-0.4 0-0.8 0h-6.4q-0.5 0-1 0.2-0.5 0.2-0.9 0.6-0.4 0.4-0.6 0.9-0.2 0.5-0.2 1v16q0 0.5 0.2 1 0.2 0.5 0.6 0.9 0.4 0.4 0.9 0.6 0.5 0.2 1 0.2h6.4q0.4 0 0.8 0 0.3 0.1 0.7 0.3 0.3 0.1 0.6 0.3 0.3 0.2 0.6 0.5l9 9q0.4 0.4 1 0.5 0.5 0.1 1.1-0.1 0.5-0.2 0.8-0.7 0.3-0.5 0.3-1z"/><path fill-rule="evenodd" class="a" d="m42.7 24q1.3 1.7 1.9 3.8 0.7 2 0.7 4.2 0 2.2-0.7 4.2-0.6 2.1-1.9 3.8"/><path fill-rule="evenodd" class="a" d="m51.6 49c2.3-2.3 4-4.9 5.2-7.8 1.2-2.9 1.9-6 1.9-9.2 0-3.2-0.7-6.3-1.9-9.2-1.2-2.9-2.9-5.5-5.2-7.8"/></svg>