<svg version="1.2" xmlns="http://www.w3.org/2000/svg" viewBox="0 0 64 64" width="64" height="64"><style>.a{fill:none;stroke:#fff;stroke-linecap:round;stroke-linejoin:round;stroke-width:5.3}</style><path fill-rule="evenodd" class="a" d="m32 8h-18.7q-1 0-2 0.4-1 0.4-1.7 1.2-0.8 0.7-1.2 1.7-0.4 1-0.4 2v37.4q0 1 0.4 2 0.4 1 1.2 1.7 0.7 0.8 1.7 1.2 1 0.4 2 0.4h37.4q1 0 2-0.4 1-0.4 1.7-1.2 0.8-0.7 1.2-1.7 0.4-1 0.4-2v-18.7"/><path fill-rule="evenodd" class="a" d="m37.3 40h-13.3v-13.3"/><path fill-rule="evenodd" class="a" d="m42.7 8h13.3v13.3"/><path fill-rule="evenodd" class="a" d="m56 8l-32 32"/></svg>